<svg width="1082" height="766" viewBox="0 0 1082 766" fill="none" xmlns="http://www.w3.org/2000/svg">
<g filter="url(#filter0_d_3_4)">
<rect x="3.4917" y="3.44879" width="1017.17" height="633.419" rx="5.82677" fill="white"/>
</g>
<g filter="url(#filter1_d_3_4)">
<path d="M3.4917 9.27556C3.4917 6.05752 6.10043 3.44879 9.31847 3.44879H1014.84C1018.06 3.44879 1020.67 6.05753 1020.67 9.27556V71.0135H3.4917V9.27556Z" fill="#00252E"/>
</g>
<rect x="79.7803" y="24.5628" width="211.911" height="25.3367" rx="1.45669" fill="#E1E8EE"/>
<rect x="918.947" y="26.6741" width="33.9058" height="4.22279" rx="0.582677" fill="#D8D8D8"/>
<rect x="918.947" y="35.1197" width="33.9058" height="4.22279" rx="0.582677" fill="#D8D8D8"/>
<rect x="918.947" y="43.5653" width="33.9058" height="4.22279" rx="0.582677" fill="#D8D8D8"/>
<ellipse cx="130.639" cy="199.809" rx="50.8587" ry="50.6735" fill="url(#paint0_linear_3_4)"/>
<rect x="240.833" y="161.803" width="121.849" height="16.8912" rx="0.874016" fill="#E1E8EE"/>
<rect x="240.833" y="195.586" width="423.822" height="8.44558" rx="0.874016" fill="#E1E8EE"/>
<rect x="240.833" y="212.477" width="388.504" height="8.44558" rx="0.874016" fill="#E1E8EE"/>
<rect x="240.833" y="229.368" width="353.185" height="8.44558" rx="0.874016" fill="#E1E8EE"/>
<ellipse cx="728.229" cy="199.809" rx="12.7147" ry="12.6684" fill="#A7B9C8"/>
<ellipse cx="796.04" cy="199.809" rx="12.7147" ry="12.6684" fill="#A7B9C8"/>
<ellipse cx="762.134" cy="199.809" rx="12.7147" ry="12.6684" fill="#A7B9C8"/>
<ellipse cx="829.945" cy="199.809" rx="12.7147" ry="12.6684" fill="#A7B9C8"/>
<ellipse cx="863.853" cy="199.809" rx="12.7147" ry="12.6684" fill="#A7B9C8"/>
<ellipse cx="127.46" cy="340.216" rx="47.68" ry="47.5064" fill="url(#paint1_linear_3_4)"/>
<rect x="237.655" y="302.211" width="121.849" height="16.8912" rx="0.874016" fill="#E1E8EE"/>
<rect x="237.655" y="335.994" width="423.822" height="8.44558" rx="0.874016" fill="#E1E8EE"/>
<rect x="237.655" y="352.885" width="388.504" height="8.44558" rx="0.874016" fill="#E1E8EE"/>
<rect x="237.655" y="369.776" width="353.185" height="8.44558" rx="0.874016" fill="#E1E8EE"/>
<ellipse cx="725.05" cy="340.216" rx="12.7147" ry="12.6684" fill="#A7B9C8"/>
<ellipse cx="792.861" cy="340.216" rx="12.7147" ry="12.6684" fill="#A7B9C8"/>
<ellipse cx="758.955" cy="340.216" rx="12.7147" ry="12.6684" fill="#A7B9C8"/>
<ellipse cx="127.46" cy="491.181" rx="47.68" ry="47.5064" fill="url(#paint2_linear_3_4)"/>
<rect x="237.655" y="453.176" width="121.849" height="16.8912" rx="0.874016" fill="#E1E8EE"/>
<rect x="237.655" y="486.958" width="423.822" height="8.44558" rx="0.874016" fill="#E1E8EE"/>
<rect x="237.655" y="503.85" width="388.504" height="8.44558" rx="0.874016" fill="#E1E8EE"/>
<rect x="237.655" y="520.741" width="353.185" height="8.44558" rx="0.874016" fill="#E1E8EE"/>
<ellipse cx="725.05" cy="491.181" rx="12.7147" ry="12.6684" fill="#A7B9C8"/>
<ellipse cx="792.861" cy="491.181" rx="12.7147" ry="12.6684" fill="#A7B9C8"/>
<ellipse cx="758.955" cy="491.181" rx="12.7147" ry="12.6684" fill="#A7B9C8"/>
<ellipse cx="826.766" cy="491.181" rx="12.7147" ry="12.6684" fill="#A7B9C8"/>
<g filter="url(#filter2_d_3_4)">
<path fill-rule="evenodd" clip-rule="evenodd" d="M740.942 228.006C740.942 225.26 743.169 223.034 745.915 223.034H1075.03C1077.77 223.034 1080 225.26 1080 228.006V758.579C1080 761.325 1077.77 763.551 1075.03 763.551H745.915C743.168 763.551 740.942 761.325 740.942 758.579V228.006Z" fill="white"/>
</g>
<g filter="url(#filter3_d_3_4)">
<path fill-rule="evenodd" clip-rule="evenodd" d="M740.942 228.006C740.942 225.26 743.169 223.034 745.915 223.034H1075.03C1077.77 223.034 1080 225.26 1080 228.006V280.689H740.942V228.006Z" fill="#00252E"/>
</g>
<rect x="774.99" y="242.853" width="110.194" height="21.6207" rx="1.24304" fill="#E1E8EE"/>
<rect x="1014.9" y="244.655" width="28.9329" height="3.60345" rx="0.497218" fill="#D8D8D8"/>
<rect x="1014.9" y="251.861" width="28.9329" height="3.60345" rx="0.497218" fill="#D8D8D8"/>
<rect x="1014.9" y="259.068" width="28.9329" height="3.60345" rx="0.497218" fill="#D8D8D8"/>
<ellipse cx="790.741" cy="352.885" rx="15.8933" ry="15.8355" fill="url(#paint3_linear_3_4)"/>
<rect x="823.586" y="340.216" width="60.9245" height="5.63039" rx="0.267918" fill="#E1E8EE"/>
<rect x="823.586" y="351.477" width="211.911" height="2.81519" rx="0.267918" fill="#E1E8EE"/>
<rect x="823.586" y="357.108" width="194.252" height="2.81519" rx="0.267918" fill="#E1E8EE"/>
<rect x="823.586" y="362.738" width="176.593" height="2.81519" rx="0.267918" fill="#E1E8EE"/>
<ellipse cx="790.741" cy="498.571" rx="15.8933" ry="15.8355" fill="url(#paint4_linear_3_4)"/>
<rect x="823.586" y="485.903" width="60.9245" height="5.63039" rx="0.267918" fill="#E1E8EE"/>
<rect x="823.586" y="497.163" width="211.911" height="2.81519" rx="0.267918" fill="#E1E8EE"/>
<rect x="823.586" y="502.794" width="194.252" height="2.81519" rx="0.267918" fill="#E1E8EE"/>
<rect x="823.586" y="508.424" width="176.593" height="2.81519" rx="0.267918" fill="#E1E8EE"/>
<rect x="823.586" y="388.778" width="60.9245" height="5.63039" rx="0.267918" fill="#E1E8EE"/>
<rect x="823.586" y="400.039" width="211.911" height="2.81519" rx="0.267918" fill="#E1E8EE"/>
<rect x="823.586" y="405.67" width="194.252" height="2.81519" rx="0.267918" fill="#E1E8EE"/>
<rect x="823.586" y="411.3" width="176.593" height="2.81519" rx="0.267918" fill="#E1E8EE"/>
<ellipse cx="790.741" cy="401.447" rx="15.8933" ry="15.8355" fill="url(#paint5_linear_3_4)"/>
<rect x="823.586" y="534.465" width="60.9245" height="5.63039" rx="0.267918" fill="#E1E8EE"/>
<rect x="823.586" y="545.726" width="211.911" height="2.81519" rx="0.267918" fill="#E1E8EE"/>
<rect x="823.586" y="551.356" width="194.252" height="2.81519" rx="0.267918" fill="#E1E8EE"/>
<rect x="823.586" y="556.986" width="176.593" height="2.81519" rx="0.267918" fill="#E1E8EE"/>
<ellipse cx="790.741" cy="547.133" rx="15.8933" ry="15.8355" fill="url(#paint6_linear_3_4)"/>
<rect x="823.586" y="437.341" width="60.9245" height="5.63039" rx="0.267918" fill="#E1E8EE"/>
<rect x="823.586" y="448.601" width="211.911" height="2.81519" rx="0.267918" fill="#E1E8EE"/>
<rect x="823.586" y="454.232" width="194.252" height="2.81519" rx="0.267918" fill="#E1E8EE"/>
<rect x="823.586" y="459.862" width="176.593" height="2.81519" rx="0.267918" fill="#E1E8EE"/>
<ellipse cx="790.741" cy="450.009" rx="15.8933" ry="15.8355" fill="url(#paint7_linear_3_4)"/>
<rect x="823.586" y="583.027" width="60.9245" height="5.63039" rx="0.267918" fill="#E1E8EE"/>
<rect x="823.586" y="594.288" width="211.911" height="2.81519" rx="0.267918" fill="#E1E8EE"/>
<rect x="823.586" y="599.918" width="194.252" height="2.81519" rx="0.267918" fill="#E1E8EE"/>
<rect x="823.586" y="605.548" width="176.593" height="2.81519" rx="0.267918" fill="#E1E8EE"/>
<ellipse cx="790.741" cy="595.695" rx="15.8933" ry="15.8355" fill="url(#paint8_linear_3_4)"/>
<ellipse cx="790.741" cy="644.257" rx="15.8933" ry="15.8355" fill="url(#paint9_linear_3_4)"/>
<rect x="823.586" y="631.589" width="60.9245" height="5.63039" rx="0.267918" fill="#E1E8EE"/>
<rect x="823.586" y="642.85" width="211.911" height="2.81519" rx="0.267918" fill="#E1E8EE"/>
<rect x="823.586" y="648.48" width="194.252" height="2.81519" rx="0.267918" fill="#E1E8EE"/>
<rect x="823.586" y="654.111" width="176.593" height="2.81519" rx="0.267918" fill="#E1E8EE"/>
<rect x="823.586" y="680.151" width="60.9245" height="5.63039" rx="0.267918" fill="#E1E8EE"/>
<rect x="823.586" y="691.412" width="211.911" height="2.81519" rx="0.267918" fill="#E1E8EE"/>
<rect x="823.586" y="697.042" width="194.252" height="2.81519" rx="0.267918" fill="#E1E8EE"/>
<rect x="823.586" y="702.673" width="176.593" height="2.81519" rx="0.267918" fill="#E1E8EE"/>
<ellipse cx="790.741" cy="692.819" rx="15.8933" ry="15.8355" fill="url(#paint10_linear_3_4)"/>
<defs>
<filter id="filter0_d_3_4" x="0.491699" y="0.448792" width="1023.17" height="639.419" filterUnits="userSpaceOnUse" color-interpolation-filters="sRGB">
<feFlood flood-opacity="0" result="BackgroundImageFix"/>
<feColorMatrix in="SourceAlpha" type="matrix" values="0 0 0 0 0 0 0 0 0 0 0 0 0 0 0 0 0 0 127 0" result="hardAlpha"/>
<feOffset/>
<feGaussianBlur stdDeviation="1.5"/>
<feColorMatrix type="matrix" values="0 0 0 0 0 0 0 0 0 0.145098 0 0 0 0 0.180392 0 0 0 0.181839 0"/>
<feBlend mode="normal" in2="BackgroundImageFix" result="effect1_dropShadow_3_4"/>
<feBlend mode="normal" in="SourceGraphic" in2="effect1_dropShadow_3_4" result="shape"/>
</filter>
<filter id="filter1_d_3_4" x="0.491699" y="0.448792" width="1023.17" height="73.5647" filterUnits="userSpaceOnUse" color-interpolation-filters="sRGB">
<feFlood flood-opacity="0" result="BackgroundImageFix"/>
<feColorMatrix in="SourceAlpha" type="matrix" values="0 0 0 0 0 0 0 0 0 0 0 0 0 0 0 0 0 0 127 0" result="hardAlpha"/>
<feOffset/>
<feGaussianBlur stdDeviation="1.5"/>
<feColorMatrix type="matrix" values="0 0 0 0 0 0 0 0 0 0.145098 0 0 0 0 0.180392 0 0 0 0.181839 0"/>
<feBlend mode="normal" in2="BackgroundImageFix" result="effect1_dropShadow_3_4"/>
<feBlend mode="normal" in="SourceGraphic" in2="effect1_dropShadow_3_4" result="shape"/>
</filter>
<filter id="filter2_d_3_4" x="738.942" y="221.034" width="343.058" height="544.517" filterUnits="userSpaceOnUse" color-interpolation-filters="sRGB">
<feFlood flood-opacity="0" result="BackgroundImageFix"/>
<feColorMatrix in="SourceAlpha" type="matrix" values="0 0 0 0 0 0 0 0 0 0 0 0 0 0 0 0 0 0 127 0" result="hardAlpha"/>
<feOffset/>
<feGaussianBlur stdDeviation="1"/>
<feColorMatrix type="matrix" values="0 0 0 0 0 0 0 0 0 0.145098 0 0 0 0 0.180392 0 0 0 0.181839 0"/>
<feBlend mode="normal" in2="BackgroundImageFix" result="effect1_dropShadow_3_4"/>
<feBlend mode="normal" in="SourceGraphic" in2="effect1_dropShadow_3_4" result="shape"/>
</filter>
<filter id="filter3_d_3_4" x="738.942" y="221.034" width="343.058" height="61.6552" filterUnits="userSpaceOnUse" color-interpolation-filters="sRGB">
<feFlood flood-opacity="0" result="BackgroundImageFix"/>
<feColorMatrix in="SourceAlpha" type="matrix" values="0 0 0 0 0 0 0 0 0 0 0 0 0 0 0 0 0 0 127 0" result="hardAlpha"/>
<feOffset/>
<feGaussianBlur stdDeviation="1"/>
<feColorMatrix type="matrix" values="0 0 0 0 0 0 0 0 0 0.145098 0 0 0 0 0.180392 0 0 0 0.181839 0"/>
<feBlend mode="normal" in2="BackgroundImageFix" result="effect1_dropShadow_3_4"/>
<feBlend mode="normal" in="SourceGraphic" in2="effect1_dropShadow_3_4" result="shape"/>
</filter>
<linearGradient id="paint0_linear_3_4" x1="22.7448" y1="157.477" x2="84.5982" y2="301.318" gradientUnits="userSpaceOnUse">
<stop stop-color="#FAD961"/>
<stop offset="1" stop-color="#FF52C1"/>
</linearGradient>
<linearGradient id="paint1_linear_3_4" x1="79.7803" y1="292.71" x2="79.7803" y2="387.723" gradientUnits="userSpaceOnUse">
<stop stop-color="#00C7FA"/>
<stop offset="1" stop-color="#007DFA"/>
</linearGradient>
<linearGradient id="paint2_linear_3_4" x1="54.3678" y1="472.762" x2="112.428" y2="578.636" gradientUnits="userSpaceOnUse">
<stop stop-color="#FF52C1"/>
<stop offset="1" stop-color="#9952FF"/>
</linearGradient>
<linearGradient id="paint3_linear_3_4" x1="757.024" y1="339.656" x2="776.353" y2="384.606" gradientUnits="userSpaceOnUse">
<stop stop-color="#FAD961"/>
<stop offset="1" stop-color="#FF52C1"/>
</linearGradient>
<linearGradient id="paint4_linear_3_4" x1="757.024" y1="485.342" x2="776.353" y2="530.293" gradientUnits="userSpaceOnUse">
<stop stop-color="#FAD961"/>
<stop offset="1" stop-color="#FF52C1"/>
</linearGradient>
<linearGradient id="paint5_linear_3_4" x1="774.848" y1="385.611" x2="774.848" y2="417.282" gradientUnits="userSpaceOnUse">
<stop stop-color="#00C7FA"/>
<stop offset="1" stop-color="#007DFA"/>
</linearGradient>
<linearGradient id="paint6_linear_3_4" x1="774.848" y1="531.298" x2="774.848" y2="562.969" gradientUnits="userSpaceOnUse">
<stop stop-color="#00C7FA"/>
<stop offset="1" stop-color="#007DFA"/>
</linearGradient>
<linearGradient id="paint7_linear_3_4" x1="766.377" y1="443.869" x2="785.73" y2="479.161" gradientUnits="userSpaceOnUse">
<stop stop-color="#FF52C1"/>
<stop offset="1" stop-color="#9952FF"/>
</linearGradient>
<linearGradient id="paint8_linear_3_4" x1="766.377" y1="589.555" x2="785.73" y2="624.847" gradientUnits="userSpaceOnUse">
<stop stop-color="#FF52C1"/>
<stop offset="1" stop-color="#9952FF"/>
</linearGradient>
<linearGradient id="paint9_linear_3_4" x1="757.024" y1="631.029" x2="776.353" y2="675.979" gradientUnits="userSpaceOnUse">
<stop stop-color="#FAD961"/>
<stop offset="1" stop-color="#FF52C1"/>
</linearGradient>
<linearGradient id="paint10_linear_3_4" x1="774.848" y1="676.984" x2="774.848" y2="708.655" gradientUnits="userSpaceOnUse">
<stop stop-color="#00C7FA"/>
<stop offset="1" stop-color="#007DFA"/>
</linearGradient>
</defs>
</svg>
